<svg xmlns="http://www.w3.org/2000/svg" viewBox="-90 -100 180 130" width="360" height="260"><style>.k3{stroke:#1a1410;stroke-width:3px;stroke-linejoin:round;stroke-linecap:round}.k2{stroke:#1a1410;stroke-width:2.2px;stroke-linejoin:round;stroke-linecap:round}.k15{stroke:#1a1410;stroke-width:1.6px;stroke-linejoin:round;stroke-linecap:round}.k1{stroke:#1a1410;stroke-width:1.1px;stroke-linejoin:round}</style><defs><pattern id="haz" width="8" height="8" patternUnits="userSpaceOnUse" patternTransform="rotate(-35)"><rect width="8" height="8" fill="#e8b93a"></rect><rect width="4" height="8" fill="#1a1410"></rect></pattern><filter id="sil"><feColorMatrix type="matrix" values="0 0 0 0 0.11  0 0 0 0 0.08  0 0 0 0 0.06  0 0 0 1 0"></feColorMatrix></filter><g id="pod-a"><ellipse cx="0" cy="4" rx="36" ry="15" fill="rgba(0,0,0,.35)" stroke="none"></ellipse><path class="k3" d="M-32,0 L-19,-70 A19,8.55 0 0 0 19,-70 L32,0 A32,14.4 0 0 1 -32,0 Z" fill="#6f6a63"></path><path d="M-32,0 L-19,-70" fill="none" stroke="#a8a195" stroke-width="6"></path><path d="M-13,-2 L-8,-68" fill="none" stroke="#1a1410" stroke-width="2.5"></path><path d="M13,-2 L8,-68" fill="none" stroke="#1a1410" stroke-width="2.5"></path><path class="k1" d="M-29.5,-14 A29.5,13.275 0 0 0 29.5,-14 L29.5,-5 A29.5,13.275 0 0 1 -29.5,-5 Z" fill="url(#haz)"></path><path class="k15" d="M-19.6,-64 A19.6,8.82 0 0 0 19.6,-64 L19.6,-58 A19.6,8.82 0 0 1 -19.6,-58 Z" fill="#9e1b1b"></path><circle cx="-16.1" cy="-55.9" r="1.5" fill="#1a1410" stroke="none"></circle><circle cx="-10.8" cy="-53.7" r="1.5" fill="#1a1410" stroke="none"></circle><circle cx="-5.4" cy="-52.6" r="1.5" fill="#1a1410" stroke="none"></circle><circle cx="0.0" cy="-52.3" r="1.5" fill="#1a1410" stroke="none"></circle><circle cx="5.4" cy="-52.6" r="1.5" fill="#1a1410" stroke="none"></circle><circle cx="10.8" cy="-53.7" r="1.5" fill="#1a1410" stroke="none"></circle><circle cx="16.1" cy="-55.9" r="1.5" fill="#1a1410" stroke="none"></circle><circle cx="-24.6" cy="-13.8" r="1.5" fill="#1a1410" stroke="none"></circle><circle cx="-16.4" cy="-10.3" r="1.5" fill="#1a1410" stroke="none"></circle><circle cx="-8.2" cy="-8.7" r="1.5" fill="#1a1410" stroke="none"></circle><circle cx="0.0" cy="-8.3" r="1.5" fill="#1a1410" stroke="none"></circle><circle cx="8.2" cy="-8.7" r="1.5" fill="#1a1410" stroke="none"></circle><circle cx="16.4" cy="-10.3" r="1.5" fill="#1a1410" stroke="none"></circle><circle cx="24.6" cy="-13.8" r="1.5" fill="#1a1410" stroke="none"></circle><polygon class="k15" points="-9.0,-52.0 9.0,-52.0 9.0,-34.0 -9.0,-34.0" fill="#4a4642"></polygon><circle class="k15" cx="0" cy="-43" r="5" fill="#d8c9a8"></circle><ellipse class="k2" cx="0" cy="-70" rx="19" ry="8.6" fill="#807a71"></ellipse><ellipse class="k15" cx="-11.4" cy="-68.632" rx="5" ry="2.6" fill="#413d39"></ellipse><ellipse class="k15" cx="0" cy="-70.0" rx="5" ry="2.6" fill="#413d39"></ellipse><ellipse class="k15" cx="11.4" cy="-68.632" rx="5" ry="2.6" fill="#413d39"></ellipse><ellipse class="k2" cx="0" cy="0" rx="32" ry="14.4" fill="#2e2b28"></ellipse><circle class="k1" cx="-16.5" cy="-4.3" r="2.6" fill="#ff9a2e"></circle><circle class="k1" cx="16.5" cy="-4.3" r="2.6" fill="#ff9a2e"></circle></g><g id="pod-b"><ellipse cx="0" cy="4" rx="36" ry="15" fill="rgba(0,0,0,.35)" stroke="none"></ellipse><polygon class="k3" points="-33.0,0.0 -20.5,6.0 20.5,6.0 33.0,0.0 20.0,-70.0 12.4,-66.5 -12.4,-66.5 -20.0,-70.0" fill="#6f6a63"></polygon><polygon class="k2" points="-33.0,0.0 -20.0,-70.0 -12.4,-66.5 -20.5,4.0" fill="#a8a195"></polygon><polygon class="k2" points="20.5,4.0 12.4,-66.5 20.0,-70.0 33.0,0.0" fill="#413d39"></polygon><path d="M-20.5,4 L-12.4,-66.5 M20.5,4 L12.4,-66.5" fill="none" stroke="#1a1410" stroke-width="2.5"></path><polygon class="k1" points="-21.0,-12.0 21.0,-12.0 12.8,-22.0 -12.8,-22.0" fill="url(#haz)"></polygon><polygon class="k15" points="-12.4,-66.5 12.4,-66.5 12.8,-58.0 -12.8,-58.0" fill="#9e1b1b"></polygon><polygon class="k15" points="-8.0,-52.0 8.0,-52.0 8.0,-36.0 -8.0,-36.0" fill="#4a4642"></polygon><polygon class="k15" points="0.0,-49.0 5.0,-44.0 0.0,-39.0 -5.0,-44.0" fill="#d8c9a8"></polygon><polygon class="k2" points="-20.0,-70.0 20.0,-70.0 12.4,-73.5 -12.4,-73.5" fill="#807a71"></polygon><ellipse class="k15" cx="-10.8" cy="-69.704" rx="5" ry="2.6" fill="#413d39"></ellipse><ellipse class="k15" cx="0" cy="-71.0" rx="5" ry="2.6" fill="#413d39"></ellipse><ellipse class="k15" cx="10.8" cy="-69.704" rx="5" ry="2.6" fill="#413d39"></ellipse><circle cx="-17" cy="-8" r="1.5" fill="#1a1410" stroke="none"></circle><circle cx="-15" cy="-26" r="1.5" fill="#1a1410" stroke="none"></circle><circle cx="-14" cy="-44" r="1.5" fill="#1a1410" stroke="none"></circle><circle cx="17" cy="-8" r="1.5" fill="#1a1410" stroke="none"></circle><circle cx="15" cy="-26" r="1.5" fill="#1a1410" stroke="none"></circle><circle cx="14" cy="-44" r="1.5" fill="#1a1410" stroke="none"></circle><circle class="k1" cx="-17.1" cy="-2.3" r="2.6" fill="#ff9a2e"></circle><circle class="k1" cx="17.1" cy="-2.3" r="2.6" fill="#ff9a2e"></circle></g><g id="pod-c"><ellipse cx="0" cy="4" rx="38" ry="16" fill="rgba(0,0,0,.35)" stroke="none"></ellipse><path class="k3" d="M-31,0 L-18,-70 A18,8.1 0 0 0 18,-70 L31,0 A31,13.950000000000001 0 0 1 -31,0 Z" fill="#6f6a63"></path><path class="k1" d="M-28.6,-16 A28.6,12.870000000000001 0 0 0 28.6,-16 L28.6,-6 A28.6,12.870000000000001 0 0 1 -28.6,-6 Z" fill="url(#haz)"></path><polygon class="k2" points="-31.0,2.0 -18.0,-70.0 -13.0,-70.0 -25.0,2.0" fill="#8b857c"></polygon><polygon class="k2" points="-15.0,2.0 -8.5,-70.0 -3.5,-70.0 -9.0,2.0" fill="#8b857c"></polygon><polygon class="k2" points="1.0,2.0 1.0,-70.0 6.0,-70.0 7.0,2.0" fill="#8b857c"></polygon><polygon class="k2" points="17.0,2.0 10.5,-70.0 15.5,-70.0 23.0,2.0" fill="#8b857c"></polygon><path d="M-28,-6 L-16,-64" fill="none" stroke="#413d39" stroke-width="1.6"></path><path d="M-12,-6 L-6,-64" fill="none" stroke="#413d39" stroke-width="1.6"></path><path d="M4,-6 L4,-64" fill="none" stroke="#413d39" stroke-width="1.6"></path><path d="M20,-6 L13,-64" fill="none" stroke="#413d39" stroke-width="1.6"></path><path class="k15" d="M-18.4,-66 A18.4,8.28 0 0 0 18.4,-66 L18.4,-61 A18.4,8.28 0 0 1 -18.4,-61 Z" fill="#9e1b1b"></path><path d="M-34,-8 L-24,-24 M34,-8 L24,-24" fill="none" stroke="#1a1410" stroke-width="7"></path><path d="M-34,-8 L-24,-24 M34,-8 L24,-24" fill="none" stroke="#a8a195" stroke-width="3.5"></path><ellipse class="k15" cx="-34" cy="-6" rx="5" ry="2.6" fill="#413d39"></ellipse><ellipse class="k15" cx="34" cy="-6" rx="5" ry="2.6" fill="#413d39"></ellipse><ellipse class="k2" cx="0" cy="-70" rx="18" ry="8.1" fill="#807a71"></ellipse><ellipse class="k15" cx="-10.8" cy="-68.704" rx="5" ry="2.6" fill="#413d39"></ellipse><ellipse class="k15" cx="0" cy="-70.0" rx="5" ry="2.6" fill="#413d39"></ellipse><ellipse class="k15" cx="10.8" cy="-68.704" rx="5" ry="2.6" fill="#413d39"></ellipse><ellipse class="k2" cx="0" cy="2" rx="31" ry="14" fill="#2e2b28"></ellipse><circle class="k1" cx="-16.0" cy="-6.4" r="2.6" fill="#ff9a2e"></circle><circle class="k1" cx="16.0" cy="-6.4" r="2.6" fill="#ff9a2e"></circle></g><g id="pod-open"><ellipse cx="0" cy="2" rx="58" ry="26" fill="rgba(0,0,0,.3)" stroke="none"></ellipse><polygon class="k3" points="-27.7,1.1 0.9,-13.2 -13.0,-25.4 -38.5,-31.8 -68.9,-16.5 -54.1,-4.8" fill="#5d5952"></polygon><path d="M-28,1 L-54,-5 L-69,-17 M1,-13 L-13,-25 L-38,-32" fill="none" stroke="#413d39" stroke-width="2"></path><circle class="k1" cx="-34" cy="-15" r="3.2" fill="#4a4642"></circle><polygon class="k3" points="27.7,1.1 -0.9,-13.2 13.0,-25.4 38.5,-31.8 68.9,-16.5 54.1,-4.8" fill="#5d5952"></polygon><path d="M28,1 L54,-5 L69,-17 M-1,-13 L13,-25 L38,-32" fill="none" stroke="#413d39" stroke-width="2"></path><circle class="k1" cx="34" cy="-15" r="3.2" fill="#4a4642"></circle><circle cx="0" cy="-26" r="34" fill="#ff8a2a" opacity=".22"></circle><polygon class="k3" points="-18.0,0.0 -11.2,4.0 11.2,4.0 18.0,0.0 13.0,-38.0 8.1,-35.5 -8.1,-35.5 -13.0,-38.0" fill="#413d39"></polygon><polygon class="k15" points="-13.0,-35.5 13.0,-35.5 13.4,-28.0 -13.4,-28.0" fill="#9e1b1b"></polygon><polygon class="k2" points="-13.0,-38.0 13.0,-38.0 8.0,-40.5 -8.0,-40.5" fill="#ffb13b"></polygon><polygon points="-9.0,-42.0 9.0,-42.0 22.0,-96.0 -22.0,-96.0" fill="#ff8a2a" opacity=".3"></polygon><polygon class="k3" points="-0.9,13.2 27.7,-1.1 54.1,4.8 68.9,16.5 38.5,31.8 13.0,25.4" fill="#6f6a63"></polygon><path d="M-1,13 L13,25 L38,32 M28,-1 L54,5 L69,17" fill="none" stroke="#413d39" stroke-width="2"></path><circle class="k1" cx="34" cy="15" r="3.2" fill="#4a4642"></circle><polygon class="k3" points="0.9,13.2 -27.7,-1.1 -54.1,4.8 -68.9,16.5 -38.5,31.8 -13.0,25.4" fill="#6f6a63"></polygon><path d="M1,13 L-13,25 L-38,32 M-28,-1 L-54,5 L-69,17" fill="none" stroke="#413d39" stroke-width="2"></path><circle class="k1" cx="-34" cy="15" r="3.2" fill="#4a4642"></circle><polygon class="k15" points="-17.0,0.0 -10.0,4.0 10.0,4.0 17.0,0.0 10.0,-4.0 -10.0,-4.0" fill="#ffd23f"></polygon></g></defs><use href="#pod-open"/></svg>
