<svg xmlns="http://www.w3.org/2000/svg" viewBox="-70 -130 140 150" width="280" height="300"><style>.k3{stroke:#1a1410;stroke-width:3px;stroke-linejoin:round;stroke-linecap:round}.k2{stroke:#1a1410;stroke-width:2.2px;stroke-linejoin:round;stroke-linecap:round}.k15{stroke:#1a1410;stroke-width:1.6px;stroke-linejoin:round;stroke-linecap:round}.k1{stroke:#1a1410;stroke-width:1.1px;stroke-linejoin:round}</style><defs><pattern id="haz" width="8" height="8" patternUnits="userSpaceOnUse" patternTransform="rotate(-35)"><rect width="8" height="8" fill="#e8b93a"></rect><rect width="4" height="8" fill="#1a1410"></rect></pattern><filter id="sil"><feColorMatrix type="matrix" values="0 0 0 0 0.11  0 0 0 0 0.08  0 0 0 0 0.06  0 0 0 1 0"></feColorMatrix></filter><g id="e-ghost"><circle cx="0" cy="-78" r="40" fill="#9a6ae0" opacity=".16" stroke="none"></circle><ellipse cx="0" cy="-70" rx="42" ry="46" fill="none" stroke="#c9a8ff" stroke-width="2" stroke-dasharray="8 5"></ellipse><path d="M-6,-50 Q-12,-36 -6,-26 Q0,-18 -8,-10" fill="none" stroke="#1a1410" stroke-width="4"></path><path d="M-6,-50 Q-12,-36 -6,-26 Q0,-18 -8,-10" fill="none" stroke="#5f4a38" stroke-width="2"></path><path d="M2,-50 Q6,-38 2,-30 Q-2,-22 6,-16" fill="none" stroke="#1a1410" stroke-width="4"></path><path d="M2,-50 Q6,-38 2,-30 Q-2,-22 6,-16" fill="none" stroke="#5f4a38" stroke-width="2"></path><path d="M8,-52 Q18,-40 14,-30" fill="none" stroke="#1a1410" stroke-width="4"></path><path d="M8,-52 Q18,-40 14,-30" fill="none" stroke="#5f4a38" stroke-width="2"></path><circle cx="-8" cy="-10" r="2" fill="#9a6ae0" stroke="none"></circle><circle cx="6" cy="-16" r="2" fill="#9a6ae0" stroke="none"></circle><polyline points="-6,-56 -16,-50 -20,-40" fill="none" stroke="#1a1410" stroke-width="5.6" stroke-linejoin="round" stroke-linecap="round"></polyline><polyline points="-6,-56 -16,-50 -20,-40" fill="none" stroke="#3e3026" stroke-width="2.4" stroke-linejoin="round" stroke-linecap="round"></polyline><circle cx="-16" cy="-50" r="1.08" fill="#d8c9a8" stroke="none"></circle><polyline points="6,-56 14,-48 12,-38" fill="none" stroke="#1a1410" stroke-width="5.6" stroke-linejoin="round" stroke-linecap="round"></polyline><polyline points="6,-56 14,-48 12,-38" fill="none" stroke="#3e3026" stroke-width="2.4" stroke-linejoin="round" stroke-linecap="round"></polyline><circle cx="14" cy="-48" r="1.08" fill="#d8c9a8" stroke="none"></circle><ellipse class="k3" cx="0" cy="-58" rx="11" ry="10" fill="#3e3026"></ellipse><path d="M-8,-62 Q0,-67 8,-62" fill="none" stroke="#d8c9a8" stroke-width="1.6"></path><ellipse class="k3" cx="2" cy="-86" rx="24" ry="19" fill="#5a3c78"></ellipse><path d="M-14,-90 Q-4,-98 4,-88 Q10,-80 20,-86 M-10,-76 Q0,-82 12,-74" fill="none" stroke="#c9a8ff" stroke-width="2"></path><path class="k15" d="M-18,-96 Q2,-112 24,-96 Q2,-104 -18,-96 Z" fill="#d8c9a8"></path><polygon class="k2" points="-12.0,-72.0 -24.0,-70.0 -22.0,-62.0 -10.0,-64.0" fill="#5f4a38"></polygon><circle cx="-18" cy="-68" r="3" fill="#d9c2ff" stroke="#1a1410" stroke-width="0.8"></circle><circle cx="-13" cy="-67" r="2" fill="#d9c2ff" stroke="#1a1410" stroke-width="0.8"></circle></g><g id="e-swarm-back"><polyline points="-6,-16 -14,-28 -20,0" fill="none" stroke="#1a1410" stroke-width="6.2" stroke-linejoin="round" stroke-linecap="round"></polyline><polyline points="-6,-16 -14,-28 -20,0" fill="none" stroke="#3e3026" stroke-width="3" stroke-linejoin="round" stroke-linecap="round"></polyline><circle cx="-14" cy="-28" r="1.35" fill="#d8c9a8" stroke="none"></circle><polyline points="4,-16 4,-30 8,0" fill="none" stroke="#1a1410" stroke-width="6.2" stroke-linejoin="round" stroke-linecap="round"></polyline><polyline points="4,-16 4,-30 8,0" fill="none" stroke="#3e3026" stroke-width="3" stroke-linejoin="round" stroke-linecap="round"></polyline><circle cx="4" cy="-30" r="1.35" fill="#d8c9a8" stroke="none"></circle><polyline points="14,-14 24,-26 30,0" fill="none" stroke="#1a1410" stroke-width="6.2" stroke-linejoin="round" stroke-linecap="round"></polyline><polyline points="14,-14 24,-26 30,0" fill="none" stroke="#3e3026" stroke-width="3" stroke-linejoin="round" stroke-linecap="round"></polyline><circle cx="24" cy="-26" r="1.35" fill="#d8c9a8" stroke="none"></circle></g><g id="e-swarm-body"><ellipse class="k3" cx="16" cy="-18" rx="15" ry="9" fill="#5f4a38"></ellipse><path d="M8,-26 Q12,-18 8,-10 M16,-27 Q20,-18 16,-9 M24,-25 Q27,-18 24,-11" fill="none" stroke="#1a1410" stroke-width="1.5"></path><path d="M4,-25 Q16,-31 29,-21" fill="none" stroke="#d8c9a8" stroke-width="2.2"></path><ellipse class="k3" cx="-2" cy="-20" rx="10" ry="8" fill="#3e3026"></ellipse><path d="M-10,-24 Q-2,-29 6,-25" fill="none" stroke="#d8c9a8" stroke-width="1.8"></path><polygon class="k3" points="-10.0,-27.0 -26.0,-24.0 -31.0,-17.0 -12.0,-14.0" fill="#5f4a38"></polygon><circle cx="-22.0" cy="-23.0" r="1.4" fill="#e0a030" stroke="#1a1410" stroke-width="0.6"></circle><circle cx="-18.8" cy="-21.4" r="1.4" fill="#e0a030" stroke="#1a1410" stroke-width="0.6"></circle><circle cx="-15.6" cy="-23.0" r="1.4" fill="#e0a030" stroke="#1a1410" stroke-width="0.6"></circle><path d="M-27,-20 Q-38,-21 -36,-12" fill="none" stroke="#1a1410" stroke-width="4.5"></path><path d="M-27,-20 Q-38,-21 -36,-12" fill="none" stroke="#d8c9a8" stroke-width="2.2"></path><path d="M-27,-16 Q-35,-14 -32,-8" fill="none" stroke="#1a1410" stroke-width="4"></path><path d="M-27,-16 Q-35,-14 -32,-8" fill="none" stroke="#d8c9a8" stroke-width="1.8"></path><polyline points="-8,-20 -12,-38" fill="none" stroke="#1a1410" stroke-width="6.4" stroke-linejoin="round" stroke-linecap="round"></polyline><polyline points="-8,-20 -12,-38" fill="none" stroke="#3e3026" stroke-width="3.2" stroke-linejoin="round" stroke-linecap="round"></polyline><circle cx="-12" cy="-38" r="1.4400000000000002" fill="#d8c9a8" stroke="none"></circle><path class="k15" d="M-12,-38 Q-30,-48 -40,-30 Q-29,-40 -14,-34 Z" fill="#d8c9a8"></path></g><g id="e-swarm-front"><polyline points="-4,-14 -12,-22 -17,0" fill="none" stroke="#1a1410" stroke-width="6.2" stroke-linejoin="round" stroke-linecap="round"></polyline><polyline points="-4,-14 -12,-22 -17,0" fill="none" stroke="#5f4a38" stroke-width="3" stroke-linejoin="round" stroke-linecap="round"></polyline><circle cx="-12" cy="-22" r="1.35" fill="#d8c9a8" stroke="none"></circle><polyline points="8,-12 14,-22 20,0" fill="none" stroke="#1a1410" stroke-width="6.2" stroke-linejoin="round" stroke-linecap="round"></polyline><polyline points="8,-12 14,-22 20,0" fill="none" stroke="#5f4a38" stroke-width="3" stroke-linejoin="round" stroke-linecap="round"></polyline><circle cx="14" cy="-22" r="1.35" fill="#d8c9a8" stroke="none"></circle><polyline points="18,-12 30,-20 38,0" fill="none" stroke="#1a1410" stroke-width="6.2" stroke-linejoin="round" stroke-linecap="round"></polyline><polyline points="18,-12 30,-20 38,0" fill="none" stroke="#5f4a38" stroke-width="3" stroke-linejoin="round" stroke-linecap="round"></polyline><circle cx="30" cy="-20" r="1.35" fill="#d8c9a8" stroke="none"></circle></g><g id="e-swarm"><use href="#e-swarm-back"></use><use href="#e-swarm-body"></use><use href="#e-swarm-front"></use></g><g id="e-mutant-back"><polyline points="6,-30 16,-46 22,0" fill="none" stroke="#1a1410" stroke-width="7.2" stroke-linejoin="round" stroke-linecap="round"></polyline><polyline points="6,-30 16,-46 22,0" fill="none" stroke="#3e3026" stroke-width="4" stroke-linejoin="round" stroke-linecap="round"></polyline><circle cx="16" cy="-46" r="1.8" fill="#d8c9a8" stroke="none"></circle><polyline points="-4,-30 -8,-46 -14,0" fill="none" stroke="#1a1410" stroke-width="7.2" stroke-linejoin="round" stroke-linecap="round"></polyline><polyline points="-4,-30 -8,-46 -14,0" fill="none" stroke="#3e3026" stroke-width="4" stroke-linejoin="round" stroke-linecap="round"></polyline><circle cx="-8" cy="-46" r="1.8" fill="#d8c9a8" stroke="none"></circle></g><g id="e-mutant-body"><ellipse cx="20" cy="-34" rx="17" ry="10" fill="#5f4a38" transform="rotate(-12 20 -34)" class="k3"></ellipse><path d="M12,-42 Q16,-34 12,-26 M20,-44 Q24,-35 21,-26 M28,-44 Q31,-37 30,-30" fill="none" stroke="#1a1410" stroke-width="1.5"></path><path d="M6,-40 Q20,-50 36,-44" fill="none" stroke="#d8c9a8" stroke-width="2.2"></path><path class="k3" d="M-2,-30 Q-12,-56 -6,-72 Q4,-78 10,-62 Q13,-44 6,-28 Z" fill="#3e3026"></path><path class="k1" d="M-6,-36 Q-10,-50 -8,-60 Q-3,-48 -1,-36 Z" fill="#8a2e26"></path><path d="M-7,-68 Q2,-74 8,-64" fill="none" stroke="#d8c9a8" stroke-width="2"></path><path d="M-10,-56 Q0,-60 9,-52" fill="none" stroke="#d8c9a8" stroke-width="2"></path><path d="M-10,-44 Q-2,-47 8,-42" fill="none" stroke="#d8c9a8" stroke-width="2"></path><path class="k3" d="M-4,-72 Q-4,-94 10,-104 Q2,-88 4,-76 Z" fill="#5f4a38"></path><polygon class="k3" points="-4.0,-76.0 -20.0,-76.0 -25.0,-68.0 -8.0,-67.0" fill="#5f4a38"></polygon><circle cx="-18.0" cy="-74.0" r="1.4" fill="#e0a030" stroke="#1a1410" stroke-width="0.6"></circle><circle cx="-14.8" cy="-72.4" r="1.4" fill="#e0a030" stroke="#1a1410" stroke-width="0.6"></circle><circle cx="-11.6" cy="-74.0" r="1.4" fill="#e0a030" stroke="#1a1410" stroke-width="0.6"></circle><path d="M-22,-72 Q-33,-73 -31,-64" fill="none" stroke="#1a1410" stroke-width="4.5"></path><path d="M-22,-72 Q-33,-73 -31,-64" fill="none" stroke="#d8c9a8" stroke-width="2.2"></path><path d="M-22,-68 Q-30,-66 -27,-60" fill="none" stroke="#1a1410" stroke-width="4"></path><path d="M-22,-68 Q-30,-66 -27,-60" fill="none" stroke="#d8c9a8" stroke-width="1.8"></path><polyline points="-2,-52 -18,-50" fill="none" stroke="#1a1410" stroke-width="6.800000000000001" stroke-linejoin="round" stroke-linecap="round"></polyline><polyline points="-2,-52 -18,-50" fill="none" stroke="#3e3026" stroke-width="3.6" stroke-linejoin="round" stroke-linecap="round"></polyline><circle cx="-18" cy="-50" r="1.62" fill="#d8c9a8" stroke="none"></circle><path class="k15" d="M-18,-50 Q-40,-60 -50,-34 Q-38,-50 -20,-45 Z" fill="#d8c9a8"></path><polyline points="-4,-64 -22,-72" fill="none" stroke="#1a1410" stroke-width="7.2" stroke-linejoin="round" stroke-linecap="round"></polyline><polyline points="-4,-64 -22,-72" fill="none" stroke="#5f4a38" stroke-width="4" stroke-linejoin="round" stroke-linecap="round"></polyline><circle cx="-22" cy="-72" r="1.8" fill="#d8c9a8" stroke="none"></circle><path class="k15" d="M-22,-72 Q-46,-90 -62,-60 Q-44,-78 -24,-66 Z" fill="#d8c9a8"></path></g><g id="e-mutant-front"><polyline points="10,-28 24,-42 30,0" fill="none" stroke="#1a1410" stroke-width="7.2" stroke-linejoin="round" stroke-linecap="round"></polyline><polyline points="10,-28 24,-42 30,0" fill="none" stroke="#5f4a38" stroke-width="4" stroke-linejoin="round" stroke-linecap="round"></polyline><circle cx="24" cy="-42" r="1.8" fill="#d8c9a8" stroke="none"></circle><polyline points="-2,-28 -2,-44 -6,0" fill="none" stroke="#1a1410" stroke-width="7.2" stroke-linejoin="round" stroke-linecap="round"></polyline><polyline points="-2,-28 -2,-44 -6,0" fill="none" stroke="#5f4a38" stroke-width="4" stroke-linejoin="round" stroke-linecap="round"></polyline><circle cx="-2" cy="-44" r="1.8" fill="#d8c9a8" stroke="none"></circle></g><g id="e-mutant"><use href="#e-mutant-back"></use><use href="#e-mutant-body"></use><use href="#e-mutant-front"></use></g><g id="e-brute-back"><polyline points="10,-24 22,-34 28,0" fill="none" stroke="#1a1410" stroke-width="10.2" stroke-linejoin="round" stroke-linecap="round"></polyline><polyline points="10,-24 22,-34 28,0" fill="none" stroke="#3e3026" stroke-width="7" stroke-linejoin="round" stroke-linecap="round"></polyline><circle cx="22" cy="-34" r="3.15" fill="#d8c9a8" stroke="none"></circle><polyline points="-14,-24 -22,-34 -28,0" fill="none" stroke="#1a1410" stroke-width="10.2" stroke-linejoin="round" stroke-linecap="round"></polyline><polyline points="-14,-24 -22,-34 -28,0" fill="none" stroke="#3e3026" stroke-width="7" stroke-linejoin="round" stroke-linecap="round"></polyline><circle cx="-22" cy="-34" r="3.15" fill="#d8c9a8" stroke="none"></circle></g><g id="e-brute-body"><path class="k3" d="M-30,-24 Q-30,-74 8,-80 Q42,-78 46,-30 Q40,-18 -26,-18 Z" fill="#553626"></path><path class="k15" d="M-26,-20 Q8,-13 44,-24 Q10,-24 -26,-27 Z" fill="#8a2e26"></path><path class="k3" d="M-26,-42 Q6,-70 42,-46" fill="none"></path><path d="M-24,-45 Q6,-72 40,-49" fill="none" stroke="#d8c9a8" stroke-width="2.4"></path><path class="k3" d="M-20,-30 Q10,-54 44,-33" fill="none"></path><path d="M-18,-33 Q10,-57 42,-36" fill="none" stroke="#d8c9a8" stroke-width="2.4"></path><path class="k2" d="M-14,-62 Q8,-80 30,-68" fill="none"></path><polygon class="k15" points="-14.0,-64.0 -7.0,-62.0 -13.0,-75.0" fill="#d8c9a8"></polygon><polygon class="k15" points="0.0,-75.0 7.0,-73.0 1.0,-86.0" fill="#d8c9a8"></polygon><polygon class="k15" points="16.0,-77.0 23.0,-75.0 17.0,-88.0" fill="#d8c9a8"></polygon><polygon class="k15" points="32.0,-68.0 39.0,-66.0 33.0,-79.0" fill="#d8c9a8"></polygon><polygon class="k3" points="-24.0,-46.0 -50.0,-38.0 -56.0,-20.0 -28.0,-18.0" fill="#6e4630"></polygon><path d="M-26,-44 L-49,-37" fill="none" stroke="#d8c9a8" stroke-width="2"></path><path class="k15" d="M-50,-38 Q-68,-48 -64,-66 Q-58,-48 -42,-42 Z" fill="#d8c9a8"></path><path class="k15" d="M-40,-42 Q-46,-56 -40,-64 Q-38,-54 -32,-46 Z" fill="#d8c9a8"></path><circle cx="-44.0" cy="-32.0" r="1.4" fill="#e0a030" stroke="#1a1410" stroke-width="0.6"></circle><circle cx="-40.8" cy="-30.4" r="1.4" fill="#e0a030" stroke="#1a1410" stroke-width="0.6"></circle><circle cx="-37.6" cy="-32.0" r="1.4" fill="#e0a030" stroke="#1a1410" stroke-width="0.6"></circle><path d="M-53,-26 Q-64,-27 -62,-18" fill="none" stroke="#1a1410" stroke-width="4.5"></path><path d="M-53,-26 Q-64,-27 -62,-18" fill="none" stroke="#d8c9a8" stroke-width="2.2"></path><path d="M-53,-22 Q-61,-20 -58,-14" fill="none" stroke="#1a1410" stroke-width="4"></path><path d="M-53,-22 Q-61,-20 -58,-14" fill="none" stroke="#d8c9a8" stroke-width="1.8"></path></g><g id="e-brute-front"><polyline points="18,-20 32,-28 38,0" fill="none" stroke="#1a1410" stroke-width="11.2" stroke-linejoin="round" stroke-linecap="round"></polyline><polyline points="18,-20 32,-28 38,0" fill="none" stroke="#5f4a38" stroke-width="8" stroke-linejoin="round" stroke-linecap="round"></polyline><circle cx="32" cy="-28" r="3.6" fill="#d8c9a8" stroke="none"></circle><polyline points="-8,-20 -14,-30 -18,0" fill="none" stroke="#1a1410" stroke-width="11.2" stroke-linejoin="round" stroke-linecap="round"></polyline><polyline points="-8,-20 -14,-30 -18,0" fill="none" stroke="#5f4a38" stroke-width="8" stroke-linejoin="round" stroke-linecap="round"></polyline><circle cx="-14" cy="-30" r="3.6" fill="#d8c9a8" stroke="none"></circle></g><g id="e-brute"><use href="#e-brute-back"></use><use href="#e-brute-body"></use><use href="#e-brute-front"></use></g><g id="e-burst-back"><polyline points="-10,-16 -16,-24 -22,0" fill="none" stroke="#1a1410" stroke-width="6.2" stroke-linejoin="round" stroke-linecap="round"></polyline><polyline points="-10,-16 -16,-24 -22,0" fill="none" stroke="#3e3026" stroke-width="3" stroke-linejoin="round" stroke-linecap="round"></polyline><circle cx="-16" cy="-24" r="1.35" fill="#d8c9a8" stroke="none"></circle><polyline points="6,-16 10,-26 14,0" fill="none" stroke="#1a1410" stroke-width="6.2" stroke-linejoin="round" stroke-linecap="round"></polyline><polyline points="6,-16 10,-26 14,0" fill="none" stroke="#3e3026" stroke-width="3" stroke-linejoin="round" stroke-linecap="round"></polyline><circle cx="10" cy="-26" r="1.35" fill="#d8c9a8" stroke="none"></circle><polyline points="20,-18 30,-26 34,0" fill="none" stroke="#1a1410" stroke-width="6.2" stroke-linejoin="round" stroke-linecap="round"></polyline><polyline points="20,-18 30,-26 34,0" fill="none" stroke="#3e3026" stroke-width="3" stroke-linejoin="round" stroke-linecap="round"></polyline><circle cx="30" cy="-26" r="1.35" fill="#d8c9a8" stroke="none"></circle></g><g id="e-burst-body"><ellipse class="k3" cx="8" cy="-38" rx="28" ry="24" fill="#8fbf3a"></ellipse><path d="M-6,-40 Q-2,-50 6,-44 Q2,-38 -4,-36 Z" fill="#2e4a14" opacity=".5" stroke="none"></path><path d="M10,-30 Q16,-40 22,-32 Q16,-26 12,-26 Z" fill="#2e4a14" opacity=".5" stroke="none"></path><path d="M8,-52 Q14,-58 18,-50 Q12,-46 8,-48 Z" fill="#2e4a14" opacity=".5" stroke="none"></path><circle class="k1" cx="-10" cy="-54" r="3.5" fill="#c8ec7a"></circle><circle class="k1" cx="22" cy="-54" r="4" fill="#c8ec7a"></circle><circle class="k1" cx="28" cy="-36" r="3" fill="#c8ec7a"></circle><circle class="k1" cx="-12" cy="-26" r="2.6" fill="#c8ec7a"></circle><circle class="k1" cx="4" cy="-60" r="2.4" fill="#c8ec7a"></circle><path d="M-4,-62 Q2,-38 -4,-16" fill="none" stroke="#3e3026" stroke-width="4"></path><path d="M14,-62 Q20,-38 14,-15" fill="none" stroke="#3e3026" stroke-width="4"></path><path d="M-10,-58 Q8,-68 26,-56" fill="none" stroke="#d8c9a8" stroke-width="2"></path><ellipse class="k3" cx="-22" cy="-26" rx="9" ry="8" fill="#3e3026"></ellipse><polygon class="k3" points="-26.0,-32.0 -38.0,-28.0 -40.0,-20.0 -26.0,-20.0" fill="#5f4a38"></polygon><circle cx="-35.0" cy="-29.0" r="1.4" fill="#e0a030" stroke="#1a1410" stroke-width="0.6"></circle><circle cx="-31.8" cy="-27.4" r="1.4" fill="#e0a030" stroke="#1a1410" stroke-width="0.6"></circle><path d="M-37,-26 Q-48,-27 -46,-18" fill="none" stroke="#1a1410" stroke-width="4.5"></path><path d="M-37,-26 Q-48,-27 -46,-18" fill="none" stroke="#d8c9a8" stroke-width="2.2"></path><path d="M-37,-22 Q-45,-20 -42,-14" fill="none" stroke="#1a1410" stroke-width="4"></path><path d="M-37,-22 Q-45,-20 -42,-14" fill="none" stroke="#d8c9a8" stroke-width="1.8"></path></g><g id="e-burst-front"><polyline points="-18,-18 -26,-24 -30,0" fill="none" stroke="#1a1410" stroke-width="6.2" stroke-linejoin="round" stroke-linecap="round"></polyline><polyline points="-18,-18 -26,-24 -30,0" fill="none" stroke="#5f4a38" stroke-width="3" stroke-linejoin="round" stroke-linecap="round"></polyline><circle cx="-26" cy="-24" r="1.35" fill="#d8c9a8" stroke="none"></circle><polyline points="0,-15 2,-24 0,0" fill="none" stroke="#1a1410" stroke-width="6.2" stroke-linejoin="round" stroke-linecap="round"></polyline><polyline points="0,-15 2,-24 0,0" fill="none" stroke="#5f4a38" stroke-width="3" stroke-linejoin="round" stroke-linecap="round"></polyline><circle cx="2" cy="-24" r="1.35" fill="#d8c9a8" stroke="none"></circle><polyline points="16,-15 24,-22 26,0" fill="none" stroke="#1a1410" stroke-width="6.2" stroke-linejoin="round" stroke-linecap="round"></polyline><polyline points="16,-15 24,-22 26,0" fill="none" stroke="#5f4a38" stroke-width="3" stroke-linejoin="round" stroke-linecap="round"></polyline><circle cx="24" cy="-22" r="1.35" fill="#d8c9a8" stroke="none"></circle></g><g id="e-burst"><use href="#e-burst-back"></use><use href="#e-burst-body"></use><use href="#e-burst-front"></use></g><g id="e-heal-back"><polyline points="-4,-44 -14,-60 -18,0" fill="none" stroke="#1a1410" stroke-width="6.2" stroke-linejoin="round" stroke-linecap="round"></polyline><polyline points="-4,-44 -14,-60 -18,0" fill="none" stroke="#3e3026" stroke-width="3" stroke-linejoin="round" stroke-linecap="round"></polyline><circle cx="-14" cy="-60" r="1.35" fill="#d8c9a8" stroke="none"></circle><polyline points="8,-44 16,-62 20,0" fill="none" stroke="#1a1410" stroke-width="6.2" stroke-linejoin="round" stroke-linecap="round"></polyline><polyline points="8,-44 16,-62 20,0" fill="none" stroke="#3e3026" stroke-width="3" stroke-linejoin="round" stroke-linecap="round"></polyline><circle cx="16" cy="-62" r="1.35" fill="#d8c9a8" stroke="none"></circle></g><g id="e-heal-body"><ellipse cx="0" cy="0" rx="40" ry="14" fill="none" stroke="#9ccf4a" opacity=".8" stroke-width="2.5" stroke-dasharray="6 4"></ellipse><path class="k3" d="M-10,-46 Q-6,-70 12,-74 Q22,-60 12,-44 Z" fill="#3e3026"></path><path d="M-6,-58 Q4,-68 14,-66" fill="none" stroke="#d8c9a8" stroke-width="1.8"></path><circle class="k2" cx="14" cy="-80" r="7.5" fill="#9ccf4a"></circle><circle class="k2" cx="24" cy="-70" r="6" fill="#9ccf4a"></circle><circle class="k2" cx="6" cy="-88" r="5.5" fill="#9ccf4a"></circle><circle cx="12" cy="-83" r="2.2" fill="#e8f8c0" stroke="none"></circle><circle cx="22" cy="-72" r="1.8" fill="#e8f8c0" stroke="none"></circle><path d="M-8,-66 Q-14,-74 -16,-78" fill="none" stroke="#1a1410" stroke-width="6"></path><path d="M-8,-66 Q-14,-74 -16,-78" fill="none" stroke="#5f4a38" stroke-width="3.5"></path><polygon class="k3" points="-12.0,-82.0 -26.0,-82.0 -28.0,-74.0 -14.0,-73.0" fill="#5f4a38"></polygon><circle cx="-24.0" cy="-80.0" r="1.4" fill="#e0a030" stroke="#1a1410" stroke-width="0.6"></circle><circle cx="-20.8" cy="-78.4" r="1.4" fill="#e0a030" stroke="#1a1410" stroke-width="0.6"></circle><path d="M-27,-76 Q-36,-68 -36,-52" fill="none" stroke="#1a1410" stroke-width="4"></path><path d="M-27,-76 Q-36,-68 -36,-52" fill="none" stroke="#8a2e26" stroke-width="2"></path><path d="M-25,-74 Q-30,-60 -26,-48" fill="none" stroke="#1a1410" stroke-width="3.5"></path><path d="M-25,-74 Q-30,-60 -26,-48" fill="none" stroke="#8a2e26" stroke-width="1.6"></path><circle cx="-36" cy="-50" r="2.4" fill="#9ccf4a" stroke="none"></circle><circle cx="-26" cy="-46" r="2.2" fill="#9ccf4a" stroke="none"></circle></g><g id="e-heal-front"><polyline points="0,-42 -6,-56 -8,0" fill="none" stroke="#1a1410" stroke-width="6.2" stroke-linejoin="round" stroke-linecap="round"></polyline><polyline points="0,-42 -6,-56 -8,0" fill="none" stroke="#5f4a38" stroke-width="3" stroke-linejoin="round" stroke-linecap="round"></polyline><circle cx="-6" cy="-56" r="1.35" fill="#d8c9a8" stroke="none"></circle><polyline points="8,-42 24,-54 28,0" fill="none" stroke="#1a1410" stroke-width="6.2" stroke-linejoin="round" stroke-linecap="round"></polyline><polyline points="8,-42 24,-54 28,0" fill="none" stroke="#5f4a38" stroke-width="3" stroke-linejoin="round" stroke-linecap="round"></polyline><circle cx="24" cy="-54" r="1.35" fill="#d8c9a8" stroke="none"></circle></g><g id="e-heal"><use href="#e-heal-back"></use><use href="#e-heal-body"></use><use href="#e-heal-front"></use></g><g id="e-flyer-back"><path class="k15" d="M4,-80 Q30,-114 64,-106 Q42,-92 6,-74 Z" fill="rgba(216,201,168,.35)"></path><path class="k15" d="M0,-78 Q-20,-116 -52,-114 Q-30,-96 -2,-74 Z" fill="rgba(216,201,168,.35)"></path><path d="M8,-80 L50,-104 M10,-78 L40,-94 M-2,-80 L-40,-110 M-2,-78 L-30,-98" fill="none" stroke="#1a1410" stroke-width="1.5"></path></g><g id="e-flyer-body"><polyline points="-4,-70 -10,-60 -6,-50" fill="none" stroke="#1a1410" stroke-width="5.4" stroke-linejoin="round" stroke-linecap="round"></polyline><polyline points="-4,-70 -10,-60 -6,-50" fill="none" stroke="#3e3026" stroke-width="2.2" stroke-linejoin="round" stroke-linecap="round"></polyline><circle cx="-10" cy="-60" r="0.9900000000000001" fill="#d8c9a8" stroke="none"></circle><polyline points="2,-70 6,-58 2,-48" fill="none" stroke="#1a1410" stroke-width="5.4" stroke-linejoin="round" stroke-linecap="round"></polyline><polyline points="2,-70 6,-58 2,-48" fill="none" stroke="#3e3026" stroke-width="2.2" stroke-linejoin="round" stroke-linecap="round"></polyline><circle cx="6" cy="-58" r="0.9900000000000001" fill="#d8c9a8" stroke="none"></circle><polyline points="6,-70 14,-60 12,-50" fill="none" stroke="#1a1410" stroke-width="5.4" stroke-linejoin="round" stroke-linecap="round"></polyline><polyline points="6,-70 14,-60 12,-50" fill="none" stroke="#3e3026" stroke-width="2.2" stroke-linejoin="round" stroke-linecap="round"></polyline><circle cx="14" cy="-60" r="0.9900000000000001" fill="#d8c9a8" stroke="none"></circle><circle class="k2" cx="12" cy="-66" r="7" fill="#5f4a38"></circle><circle class="k2" cx="19" cy="-60" r="6" fill="#5f4a38"></circle><circle class="k2" cx="25" cy="-54" r="5" fill="#5f4a38"></circle><circle class="k2" cx="30" cy="-48" r="4" fill="#5f4a38"></circle><path d="M8,-71 Q12,-73 16,-70" fill="none" stroke="#d8c9a8" stroke-width="1.5"></path><path d="M16,-65 Q20,-66 23,-63" fill="none" stroke="#d8c9a8" stroke-width="1.4"></path><polygon class="k15" points="32.0,-46.0 40.0,-34.0 29.0,-44.0" fill="#d8c9a8"></polygon><ellipse class="k3" cx="0" cy="-74" rx="9" ry="8" fill="#3e3026"></ellipse><polygon class="k3" points="-6.0,-80.0 -18.0,-80.0 -22.0,-72.0 -6.0,-70.0" fill="#5f4a38"></polygon><ellipse cx="-13" cy="-78" rx="3.5" ry="2.5" fill="#e0a030" class="k1"></ellipse><path d="M-19,-76 Q-30,-77 -28,-68" fill="none" stroke="#1a1410" stroke-width="4.5"></path><path d="M-19,-76 Q-30,-77 -28,-68" fill="none" stroke="#d8c9a8" stroke-width="2.2"></path><path d="M-19,-72 Q-27,-70 -24,-64" fill="none" stroke="#1a1410" stroke-width="4"></path><path d="M-19,-72 Q-27,-70 -24,-64" fill="none" stroke="#d8c9a8" stroke-width="1.8"></path></g><g id="e-flyer-front"><path class="k15" d="M2,-76 Q24,-100 50,-98 Q30,-88 4,-72 Z" fill="rgba(216,201,168,.5)"></path><path class="k15" d="M-2,-76 Q-16,-100 -40,-102 Q-24,-88 -4,-72 Z" fill="rgba(216,201,168,.5)"></path></g><g id="e-flyer"><use href="#e-flyer-back"></use><use href="#e-flyer-body"></use><use href="#e-flyer-front"></use></g></defs><use href="#e-burst"/></svg>
